<svg width="16" height="19" viewBox="0 0 16 19" fill="none" xmlns="http://www.w3.org/2000/svg">
<g id="_&#234;&#178;&#169;&#235;&#166;&#172;_&#235;&#170;&#168;&#235;&#147;&#156;" clip-path="url(#clip0_98_719)">
<path id="Vector" d="M15.489 6.47775C15.375 6.56326 13.3625 7.65967 13.3625 10.0976C13.3625 12.9175 15.9234 13.9151 16 13.9398C15.9882 14.0006 15.5932 15.306 14.6498 16.6362C13.8086 17.8067 12.9301 18.9753 11.5937 18.9753C10.2572 18.9753 9.91328 18.2247 8.37047 18.2247C6.82766 18.2247 6.33239 19 5.10994 19C3.88748 19 3.03452 17.9169 2.0538 16.5868C0.917823 15.0248 0 12.5983 0 10.2952C0 6.60126 2.48422 4.64216 4.92912 4.64216C6.22823 4.64216 7.31114 5.46685 8.12677 5.46685C8.94239 5.46685 10.1137 4.59276 11.5917 4.59276C12.1518 4.59276 14.1644 4.64216 15.489 6.47775ZM10.8901 3.0289C11.5013 2.32773 11.9337 1.35484 11.9337 0.381938C11.9337 0.247025 11.9219 0.110211 11.8963 0C10.9019 0.0361036 9.71871 0.640364 9.00528 1.44034C8.44515 2.05601 7.92237 3.0289 7.92237 4.0151C7.92237 4.16332 7.94792 4.31153 7.95971 4.35904C8.0226 4.37044 8.1248 4.38374 8.227 4.38374C9.11927 4.38374 10.2415 3.80608 10.8901 3.0289Z" fill="white"/>
</g>
<defs>
<clipPath id="clip0_98_719">
<rect width="16" height="19" fill="white"/>
</clipPath>
</defs>
</svg>
